<svg width="300" height="300" viewBox="0 0 319 407" fill="none" xmlns="http://www.w3.org/2000/svg">
<g filter="url(#filter0_f_1_12)">
<path d="M152.855 53.1342C127.788 87.1678 123.442 133.614 145.554 171.914C167.666 210.213 210.063 229.672 252.07 224.981C243.138 237.108 231.576 247.659 217.642 255.704C164.604 286.325 97.2955 269.038 67.3042 217.091C37.3128 165.145 55.9957 98.2101 109.034 67.5887C122.967 59.544 137.886 54.8059 152.855 53.1342Z" fill="#FFEE94"/>
</g>
<g filter="url(#filter1_i_1_12)">
<path d="M150.517 67.4758C127.636 98.5427 123.668 140.941 143.853 175.902C164.038 210.863 202.739 228.626 241.085 224.343C232.931 235.413 222.377 245.044 209.657 252.388C161.243 280.34 99.8012 264.56 72.4241 217.141C45.047 169.723 62.1014 108.623 110.516 80.6703C123.235 73.3268 136.854 69.0018 150.517 67.4758Z" fill="url(#paint0_linear_1_12)"/>
</g>
<g filter="url(#filter2_b_1_12)">
<g filter="url(#filter3_i_1_12)">
<path d="M240.639 222.843C241.178 219.783 241.459 216.635 241.459 213.422C241.459 183.366 216.866 159 186.529 159C163.976 159 144.598 172.466 136.138 191.726C129.285 185.863 120.392 182.324 110.674 182.324C89.0044 182.324 71.438 199.921 71.438 221.629C71.438 222.838 71.4925 224.034 71.5991 225.215C61.1766 230.273 54 240.886 54 253.159C54 270.335 68.0531 284.258 85.3884 284.258H233.612C250.947 284.258 265 270.335 265 253.159C265 238.378 254.591 226.005 240.639 222.843Z" fill="url(#paint1_linear_1_12)"/>
</g>
</g>
<g filter="url(#filter4_di_1_12)">
<path d="M110.782 250.388C98.3582 266.74 80.9651 299.443 110.782 299.443C140.599 299.443 123.206 266.74 110.782 250.388Z" fill="#00BCFF"/>
</g>
<g filter="url(#filter5_di_1_12)">
<path d="M207.546 250.388C195.122 266.74 177.729 299.443 207.546 299.443C237.363 299.443 219.97 266.74 207.546 250.388Z" fill="#00BCFF"/>
</g>
<g filter="url(#filter6_di_1_12)">
<path d="M161.18 318.258C148.756 334.609 131.363 367.312 161.18 367.312C190.997 367.312 173.604 334.609 161.18 318.258Z" fill="#00BCFF"/>
</g>
<g filter="url(#filter7_f_1_12)">
<rect x="78.863" y="288.019" width="161.274" height="23.5191" rx="11.7596" fill="#00BCFF"/>
</g>
<defs>
<filter id="filter0_f_1_12" x="-0.00561523" y="0.134216" width="305.076" height="323.713" filterUnits="userSpaceOnUse" color-interpolation-filters="sRGB">
<feFlood flood-opacity="0" result="BackgroundImageFix"/>
<feBlend mode="normal" in="SourceGraphic" in2="BackgroundImageFix" result="shape"/>
<feGaussianBlur stdDeviation="26.5" result="effect1_foregroundBlur_1_12"/>
</filter>
<filter id="filter1_i_1_12" x="59.3617" y="67.4758" width="181.723" height="202.735" filterUnits="userSpaceOnUse" color-interpolation-filters="sRGB">
<feFlood flood-opacity="0" result="BackgroundImageFix"/>
<feBlend mode="normal" in="SourceGraphic" in2="BackgroundImageFix" result="shape"/>
<feColorMatrix in="SourceAlpha" type="matrix" values="0 0 0 0 0 0 0 0 0 0 0 0 0 0 0 0 0 0 127 0" result="hardAlpha"/>
<feOffset dy="4"/>
<feGaussianBlur stdDeviation="4"/>
<feComposite in2="hardAlpha" operator="arithmetic" k2="-1" k3="1"/>
<feColorMatrix type="matrix" values="0 0 0 0 1 0 0 0 0 1 0 0 0 0 1 0 0 0 0.55 0"/>
<feBlend mode="normal" in2="shape" result="effect1_innerShadow_1_12"/>
</filter>
<filter id="filter2_b_1_12" x="27" y="132" width="265" height="179.258" filterUnits="userSpaceOnUse" color-interpolation-filters="sRGB">
<feFlood flood-opacity="0" result="BackgroundImageFix"/>
<feGaussianBlur in="BackgroundImageFix" stdDeviation="13.5"/>
<feComposite in2="SourceAlpha" operator="in" result="effect1_backgroundBlur_1_12"/>
<feBlend mode="normal" in="SourceGraphic" in2="effect1_backgroundBlur_1_12" result="shape"/>
</filter>
<filter id="filter3_i_1_12" x="54" y="159" width="211" height="135.258" filterUnits="userSpaceOnUse" color-interpolation-filters="sRGB">
<feFlood flood-opacity="0" result="BackgroundImageFix"/>
<feBlend mode="normal" in="SourceGraphic" in2="BackgroundImageFix" result="shape"/>
<feColorMatrix in="SourceAlpha" type="matrix" values="0 0 0 0 0 0 0 0 0 0 0 0 0 0 0 0 0 0 127 0" result="hardAlpha"/>
<feOffset dy="11"/>
<feGaussianBlur stdDeviation="5"/>
<feComposite in2="hardAlpha" operator="arithmetic" k2="-1" k3="1"/>
<feColorMatrix type="matrix" values="0 0 0 0 1 0 0 0 0 1 0 0 0 0 1 0 0 0 1 0"/>
<feBlend mode="normal" in2="shape" result="effect1_innerShadow_1_12"/>
</filter>
<filter id="filter4_di_1_12" x="75.3185" y="250.388" width="70.9268" height="88.0541" filterUnits="userSpaceOnUse" color-interpolation-filters="sRGB">
<feFlood flood-opacity="0" result="BackgroundImageFix"/>
<feColorMatrix in="SourceAlpha" type="matrix" values="0 0 0 0 0 0 0 0 0 0 0 0 0 0 0 0 0 0 127 0" result="hardAlpha"/>
<feOffset dy="20"/>
<feGaussianBlur stdDeviation="9.5"/>
<feComposite in2="hardAlpha" operator="out"/>
<feColorMatrix type="matrix" values="0 0 0 0 0.283785 0 0 0 0 0.178889 0 0 0 0 0.933333 0 0 0 1 0"/>
<feBlend mode="normal" in2="BackgroundImageFix" result="effect1_dropShadow_1_12"/>
<feBlend mode="normal" in="SourceGraphic" in2="effect1_dropShadow_1_12" result="shape"/>
<feColorMatrix in="SourceAlpha" type="matrix" values="0 0 0 0 0 0 0 0 0 0 0 0 0 0 0 0 0 0 127 0" result="hardAlpha"/>
<feOffset dy="9"/>
<feGaussianBlur stdDeviation="1.5"/>
<feComposite in2="hardAlpha" operator="arithmetic" k2="-1" k3="1"/>
<feColorMatrix type="matrix" values="0 0 0 0 1 0 0 0 0 1 0 0 0 0 1 0 0 0 0.21 0"/>
<feBlend mode="normal" in2="shape" result="effect2_innerShadow_1_12"/>
</filter>
<filter id="filter5_di_1_12" x="172.083" y="250.388" width="70.9268" height="88.0541" filterUnits="userSpaceOnUse" color-interpolation-filters="sRGB">
<feFlood flood-opacity="0" result="BackgroundImageFix"/>
<feColorMatrix in="SourceAlpha" type="matrix" values="0 0 0 0 0 0 0 0 0 0 0 0 0 0 0 0 0 0 127 0" result="hardAlpha"/>
<feOffset dy="20"/>
<feGaussianBlur stdDeviation="9.5"/>
<feComposite in2="hardAlpha" operator="out"/>
<feColorMatrix type="matrix" values="0 0 0 0 0.283785 0 0 0 0 0.178889 0 0 0 0 0.933333 0 0 0 1 0"/>
<feBlend mode="normal" in2="BackgroundImageFix" result="effect1_dropShadow_1_12"/>
<feBlend mode="normal" in="SourceGraphic" in2="effect1_dropShadow_1_12" result="shape"/>
<feColorMatrix in="SourceAlpha" type="matrix" values="0 0 0 0 0 0 0 0 0 0 0 0 0 0 0 0 0 0 127 0" result="hardAlpha"/>
<feOffset dy="9"/>
<feGaussianBlur stdDeviation="1.5"/>
<feComposite in2="hardAlpha" operator="arithmetic" k2="-1" k3="1"/>
<feColorMatrix type="matrix" values="0 0 0 0 1 0 0 0 0 1 0 0 0 0 1 0 0 0 0.21 0"/>
<feBlend mode="normal" in2="shape" result="effect2_innerShadow_1_12"/>
</filter>
<filter id="filter6_di_1_12" x="125.717" y="318.258" width="70.9268" height="88.0541" filterUnits="userSpaceOnUse" color-interpolation-filters="sRGB">
<feFlood flood-opacity="0" result="BackgroundImageFix"/>
<feColorMatrix in="SourceAlpha" type="matrix" values="0 0 0 0 0 0 0 0 0 0 0 0 0 0 0 0 0 0 127 0" result="hardAlpha"/>
<feOffset dy="20"/>
<feGaussianBlur stdDeviation="9.5"/>
<feComposite in2="hardAlpha" operator="out"/>
<feColorMatrix type="matrix" values="0 0 0 0 0.283785 0 0 0 0 0.178889 0 0 0 0 0.933333 0 0 0 1 0"/>
<feBlend mode="normal" in2="BackgroundImageFix" result="effect1_dropShadow_1_12"/>
<feBlend mode="normal" in="SourceGraphic" in2="effect1_dropShadow_1_12" result="shape"/>
<feColorMatrix in="SourceAlpha" type="matrix" values="0 0 0 0 0 0 0 0 0 0 0 0 0 0 0 0 0 0 127 0" result="hardAlpha"/>
<feOffset dy="9"/>
<feGaussianBlur stdDeviation="1.5"/>
<feComposite in2="hardAlpha" operator="arithmetic" k2="-1" k3="1"/>
<feColorMatrix type="matrix" values="0 0 0 0 1 0 0 0 0 1 0 0 0 0 1 0 0 0 0.21 0"/>
<feBlend mode="normal" in2="shape" result="effect2_innerShadow_1_12"/>
</filter>
<filter id="filter7_f_1_12" x="0.863037" y="210.019" width="317.274" height="179.519" filterUnits="userSpaceOnUse" color-interpolation-filters="sRGB">
<feFlood flood-opacity="0" result="BackgroundImageFix"/>
<feBlend mode="normal" in="SourceGraphic" in2="BackgroundImageFix" result="shape"/>
<feGaussianBlur stdDeviation="39" result="effect1_foregroundBlur_1_12"/>
</filter>
<linearGradient id="paint0_linear_1_12" x1="155.5" y1="51" x2="119.175" y2="270.951" gradientUnits="userSpaceOnUse">
<stop stop-color="#FFEE94"/>
<stop offset="1" stop-color="#FF9900"/>
</linearGradient>
<linearGradient id="paint1_linear_1_12" x1="67.4205" y1="273.074" x2="280.284" y2="113.892" gradientUnits="userSpaceOnUse">
<stop stop-color="white"/>
<stop offset="1" stop-color="white" stop-opacity="0.58"/>
</linearGradient>
</defs>
</svg>
