<svg width="300" height="300" viewBox="0 0 417 311" fill="none" xmlns="http://www.w3.org/2000/svg">
<g filter="url(#filter0_f_102_283)">
<rect x="78" y="151" width="240" height="35" rx="17.5" fill="#00BCFF"/>
</g>
<g filter="url(#filter1_b_102_283)">
<g filter="url(#filter2_i_102_283)">
<path d="M318.747 95.0084C319.549 90.4546 319.967 85.7701 319.967 80.9888C319.967 36.2599 283.369 0 238.223 0C204.661 0 175.823 20.0397 163.234 48.7008C153.035 39.9768 139.801 34.7095 125.339 34.7095C93.0918 34.7095 66.9504 60.8972 66.9504 93.2014C66.9504 95.0003 67.0315 96.7801 67.1902 98.5376C51.6799 106.065 41 121.858 41 140.124C41 165.683 61.9131 186.403 87.7108 186.403H308.289C334.087 186.403 355 165.683 355 140.124C355 118.126 339.51 99.7132 318.747 95.0084Z" fill="url(#paint0_linear_102_283)"/>
</g>
</g>
<g filter="url(#filter3_f_102_283)">
<rect x="99" y="126" width="240" height="35" rx="17.5" fill="#00BCFF"/>
</g>
<g filter="url(#filter4_f_102_283)">
<rect x="99" y="179" width="240" height="35" rx="17.5" fill="#00BCFF"/>
</g>
<g filter="url(#filter5_f_102_283)">
<rect x="93" y="196" width="240" height="35" rx="17.5" fill="#00BCFF"/>
</g>
<path fill-rule="evenodd" clip-rule="evenodd" d="M193.725 214.01L153.464 238.185L121.551 223.146L115 237.941L136.779 248.205L124.799 255.398L132.596 269.444L144.574 262.252L142.231 286.996L157.826 288.493L161.259 252.232L201.539 228.045V276.669L173.037 297.906L182.287 310.99L201.539 296.645V311H217.285V296.644L236.538 310.99L245.787 297.906L217.285 276.668V228.157L257.655 252.399L261.088 288.663L276.683 287.166L274.34 262.418L286.32 269.612L294.117 255.566L282.139 248.373L303.914 238.111L297.363 223.316L265.453 238.354L224.912 214.01L265.328 189.741L297.449 204.878L304 190.083L282.014 179.721L294.133 172.444L286.336 158.398L274.448 165.536L276.769 141.028L261.174 139.531L257.763 175.556L217.285 199.862V151.496L245.97 130.121L236.721 117.038L217.285 131.52V117H201.539V131.247L182.47 117.038L173.22 130.121L201.539 151.222V199.974L161.383 175.861L157.927 139.363L142.332 140.859L144.698 165.842L132.58 158.566L124.784 172.612L136.671 179.75L115.101 189.915L121.652 204.71L153.356 189.769L193.725 214.01Z" fill="white"/>
<defs>
<filter id="filter0_f_102_283" x="0" y="73" width="396" height="191" filterUnits="userSpaceOnUse" color-interpolation-filters="sRGB">
<feFlood flood-opacity="0" result="BackgroundImageFix"/>
<feBlend mode="normal" in="SourceGraphic" in2="BackgroundImageFix" result="shape"/>
<feGaussianBlur stdDeviation="39" result="effect1_foregroundBlur_102_283"/>
</filter>
<filter id="filter1_b_102_283" x="14" y="-27" width="368" height="240.403" filterUnits="userSpaceOnUse" color-interpolation-filters="sRGB">
<feFlood flood-opacity="0" result="BackgroundImageFix"/>
<feGaussianBlur in="BackgroundImageFix" stdDeviation="13.5"/>
<feComposite in2="SourceAlpha" operator="in" result="effect1_backgroundBlur_102_283"/>
<feBlend mode="normal" in="SourceGraphic" in2="effect1_backgroundBlur_102_283" result="shape"/>
</filter>
<filter id="filter2_i_102_283" x="41" y="0" width="314" height="196.403" filterUnits="userSpaceOnUse" color-interpolation-filters="sRGB">
<feFlood flood-opacity="0" result="BackgroundImageFix"/>
<feBlend mode="normal" in="SourceGraphic" in2="BackgroundImageFix" result="shape"/>
<feColorMatrix in="SourceAlpha" type="matrix" values="0 0 0 0 0 0 0 0 0 0 0 0 0 0 0 0 0 0 127 0" result="hardAlpha"/>
<feOffset dy="11"/>
<feGaussianBlur stdDeviation="5"/>
<feComposite in2="hardAlpha" operator="arithmetic" k2="-1" k3="1"/>
<feColorMatrix type="matrix" values="0 0 0 0 1 0 0 0 0 1 0 0 0 0 1 0 0 0 1 0"/>
<feBlend mode="normal" in2="shape" result="effect1_innerShadow_102_283"/>
</filter>
<filter id="filter3_f_102_283" x="21" y="48" width="396" height="191" filterUnits="userSpaceOnUse" color-interpolation-filters="sRGB">
<feFlood flood-opacity="0" result="BackgroundImageFix"/>
<feBlend mode="normal" in="SourceGraphic" in2="BackgroundImageFix" result="shape"/>
<feGaussianBlur stdDeviation="39" result="effect1_foregroundBlur_102_283"/>
</filter>
<filter id="filter4_f_102_283" x="21" y="101" width="396" height="191" filterUnits="userSpaceOnUse" color-interpolation-filters="sRGB">
<feFlood flood-opacity="0" result="BackgroundImageFix"/>
<feBlend mode="normal" in="SourceGraphic" in2="BackgroundImageFix" result="shape"/>
<feGaussianBlur stdDeviation="39" result="effect1_foregroundBlur_102_283"/>
</filter>
<filter id="filter5_f_102_283" x="15" y="118" width="396" height="191" filterUnits="userSpaceOnUse" color-interpolation-filters="sRGB">
<feFlood flood-opacity="0" result="BackgroundImageFix"/>
<feBlend mode="normal" in="SourceGraphic" in2="BackgroundImageFix" result="shape"/>
<feGaussianBlur stdDeviation="39" result="effect1_foregroundBlur_102_283"/>
</filter>
<linearGradient id="paint0_linear_102_283" x1="60.9717" y1="169.76" x2="377.746" y2="-67.1272" gradientUnits="userSpaceOnUse">
<stop stop-color="white"/>
<stop offset="1" stop-color="white" stop-opacity="0.58"/>
</linearGradient>
</defs>
</svg>
